# xmcd
#
# Track frame offsets:
#   150
#   11897
#   26999
#   39761
#   51408
#   63439
#   76521
#   89740
#   102613
#   113940
#   126203
#   138853
#   151350
#   164420
#   176806
#   190606
#   202156
#   213720
#   223751
#   236178
#   249358
#   263091
#   275286
#   286192
#   298114
#
# Disc length: 4121 seconds
#
# Revision: 2
# Processed by: cddbd v1.5.1PL0 Copyright (c) Steve Scherf et al.
# Submitted via: Media_Universe 3.0
#
DISCID=81101719
DTITLE=Hank Snow 1949-1951 - Les Triomphes De La Country Music Vol.10
DYEAR=2002
DGENRE=Country
TTITLE0=The Law Of Love
TTITLE1=Nobody's Child
TTITLE2=I Wonder Where You're At Tonight
TTITLE3=The Star Spangled Waltz
TTITLE4=Marriage Vow
TTITLE5=The Only Rose
TTITLE6=The Anniversary Of My Broken Heart
TTITLE7=I'm Movin' On
TTITLE8=With This Ring I Thee Wed
TTITLE9=Paving The Highway With Tears
TTITLE10=The Rhumba Boogie
TTITLE11=The Golden Rocket
TTITLE12=You Pass Me By
TTITLE13=Your Locket Is My Broken Heart
TTITLE14=Love Entered The Iron Door
TTITLE15=One More Ride
TTITLE16=Hobo Bill's Last Ride
TTITLE17=The Wreck Of The Old 97
TTITLE18=Ben Dewberry's Final Run
TTITLE19=The Mystery Of Number Five
TTITLE20=The Engineer's Child
TTITLE21=Bluebird Island
TTITLE22=Music Makin' Mama From Memphis
TTITLE23=The Highest Bidder
TTITLE24=These Things Shall Pass
EXTD=YEAR: 2002
EXTT0=
EXTT1=
EXTT2=
EXTT3=
EXTT4=
EXTT5=
EXTT6=
EXTT7=
EXTT8=
EXTT9=
EXTT10=
EXTT11=
EXTT12=
EXTT13=
EXTT14=
EXTT15=
EXTT16=
EXTT17=
EXTT18=
EXTT19=
EXTT20=
EXTT21=
EXTT22=
EXTT23=
EXTT24=
PLAYORDER=
